<svg id="Layer_1" data-name="Layer 1" xmlns="http://www.w3.org/2000/svg" viewBox="0 0 125.28 643.14"><title>myphoto1</title><path d="M736.9,354.9c10.68,24.1,4.15,46.85-4.12,69.48l-1.64.24-3-21.66c-3.71-.35-3.68,2-7.92,2-1.32,0-3.59,2.18-3.42,3.5-.17,2.27,1,4.88,1,6.36s-.37,2.47-.5,3.91c-.77,8.55-2.88,14.39-6.1,22.32-3.46,8.54-6.91,16.82-6.58,26.25.14,4.08.18,7.79,3.93,10.71,1.31,1,1.89,3.95,1.62,5.83-.75,5.09-.07,9.29,3.24,11-.14,4.86-.72,8.69-.23,12.38s2.05,7.52,3.17,11.39c3.93-.61,4.1-3.12,3.69-6.27-1-7.33-2.15-14.67-2.42-22-.13-3.87,1.12-7.93,2.39-11.69,3.26-9.71-2.39-18.69-2-28.17.15-3.58.09-6.55,3.37-9.23s4-6.34,2.49-11.19-.77-8.75-.86-14.17c0-.51,1.7-6,3-4.81.48,3.79,1.46,6.46,1,8.82-.75,3.6-.06,5.83,2.86,8.19,1.49,1.2,2.29,4.11,2.24,6.21-.18,6.87-.84,13.73-1.41,20.59-.91,10.9-2.27,21.78-2.75,32.7-.52,11.76-1.61,23.75,0,35.28,2,14.33,7.66,28.14,9.74,42.46,1.73,11.89.7,24.19.61,36.31a112.33,112.33,0,0,1-1.3,15.86c-1,6.51-2.57,12.92-3.79,19.4-.42,2.21-1.5,5-.61,6.62,4.54,8.26-.66,16.33-.06,24.49.22,3-10.36,7.91-15,6.64-12.26-3.33-24.36-7.23-36.52-10.91l.48-1.57c-.06-.32-.25-.69-.16-1,3-8.62,3.08-9.41-5.78-10.74-9.81-1.47-20.13-.13-29.76-2.2-8.47-1.83-16.36-6.53-24.3-10.39-.76-.37-.65-4.1.15-5.72,1-2,2.52-2.09,5.17-.57,11,6.28,21.78,13.27,35.54,12.17,5.1-.41,10.35,1.43,15.56,1.93,2,.19,4.15-.51,6.22-.8-1.33-2.21-2.15-5.28-4.11-6.48-4.33-2.64-9.63-3.78-13.8-6.61-3.71-2.52-6.43-6.49-9.64-9.87.7-1,1-1.81,1.47-2,7.39-2.23,7.55-10,11.44-14.9a4.67,4.67,0,0,0,.66-3.82c-2.23-6.33-.14-11.87,2-17.79,1.26-3.53.45-7.85.32-11.8-.22-6.61-.44-13.23-1-19.82-.72-8-1.46-16.14-2.82-24.11-4.31-25.21-9.19-50.33-13.26-75.58-2.06-12.76-2.89-25.71-4.18-38.59a16.74,16.74,0,0,1,.32-5.47c1.59-6.49.44-11.78-5.58-15.62-3.19-2-4.77-5-3.28-9a10,10,0,0,0,.29-3c.36-10.74.36-10.74-10.86-9.8-.31-1.31-.59-2.38-.8-3.46-.17-.85-.26-1.71-.39-2.57a6.77,6.77,0,0,1,2.53-.05c7,2.82,10.74,1.82,14.76-4.38,1.46-2.26,2.87-3.78,5.54-1.78s1.77,4.18-.33,5.69c-5.95,4.27-4.55,11.47-6.93,17.14-1.19,2.83,1.4,5,4.83,4.12a83.67,83.67,0,0,0,12.26-4c1.46-.65,2.64-2.9,3.08-4.64,1-3.86,1.46-7.84,2.05-11.78,1.11-7.37-6.22-14.85-12.5-12.76-3.78,1.25-7.54,2.58-11.29,3.91-3.08,1.09-6.13,2.22-9.74,3.53a22.69,22.69,0,0,0,1.39-3.74c2-11.51,1.94-11.44,13.41-10.68,2.52.17,5.09-.39,7.65-.62l0-1.92a23.69,23.69,0,0,0-4-.79c-5.31-.11-7.57-2.42-7.58-8,0-23.8-.18-47.61-.74-71.4-.23-10-.16-19.53,6.71-25.58,4.53-4,5.16-3.56,9.51-5.93.74-.4,6-3,10.11-5.73,4.42-2.83,8.41-4.24,12.44-14.61,2.46-7.56,4.38-27.61,7.34-35,1.14-2.82,2.55-3.3,4.71-5.7,1.47-1.64,4.55-4.84,5.58-7.19,4.31-1.65,8.85-3.79,13.92-.15,4,2.91,8.88,4.74,13.72,7.23,5.33,2.48,7.32,4.69,10.46,8.66,1.42,1.78,4.75,8,5.17,10.29,1.32,7.16,2.37,14.55-.2,22.62a10.54,10.54,0,0,0-.67,2.86c-.35,13.06-.27,26.15-1.12,39.17-.53,8.18-2.43,16.26-3.72,24.39l-2.15-.08c0-4.34-.39-8.71.07-13,1.29-12.07,2.86-24.1,4.43-36.14,1.19-9.1-1.12-11-10-12.71-11.36-2.14-19.82,2.64-29.34,7.61-8.28,4.33-9,8.76-7.56,16.87,1.86,10.44,1.08,20.93,7.62,31.06,3.26,5.05.11,8.6-1.42,12.12-5.88,13.51-7.14,27.88-9.45,42.14-3.38,20.78-9.15,40.84-20.13,59.1-4.62,7.66-6.52,15.57-1.53,24,1.8,3,3.27,5.29,7.69,4.57,3.37-.54,7,1,10.6,1.24a59.87,59.87,0,0,0,9.84,0c4.16-.38,4.7-3.36,4.51-6.92a80.79,80.79,0,0,1,.22-10.2c.21-2.64,1.41-5.31,1.15-7.86-1.53-14.66,3.81-27.55,10.31-40,8.06-15.44,14.81-31.25,17.41-48.62A111.9,111.9,0,0,1,734.83,287c.4-1.4,1.68-2.56,2.55-3.84l1.34.4c-.08,1.67-.1,3.33-.26,5-.76,8.06-1.77,16.1-2.26,24.17s-.87,15.91-6.93,22.21c-.45.46.56,2.66,1.26,3.83a31.55,31.55,0,0,0,3.14,3.84c-1.48.51-2.93,1.13-4.44,1.5-1.11.27-2.36,0-3.45.37-.66.2-1.68,1.3-1.57,1.55.34.77,1.1,1.76,1.82,1.88,2,.31,4.05-.1,5.94.39,1.2.31,2.11,1.72,3.16,2.64a15.94,15.94,0,0,1-3,2.84c-.94.52-2.28.3-3.42.5m-16.66,31.12c.13,1,.41,8.11,2.36,8.86,1.23-2,4-13.68,5.11-15.43m-10.7,29c.92.62,9.91-5.9,12.71-7.42,3.32-1.8,13.8-8.64,15-12.78-4.76,2.67-19.6,15.66-27.68,20.2m13.47,201.68-1.82,0a52,52,0,0,0-1,5.89c-.15,2.54.32,5.13,0,7.62-1,8-6.31,13.42-11.34,19.09-.81.92-.45,4.55.37,5a106.38,106.38,0,0,0,13.76,5.5c.48.16,2.4-1.71,2.28-2.42-.35-2.15-1.61-4.13-2.09-6.27-.71-3.24-2.58-7.45-1.28-9.69,3.95-6.79,1-13.92,2.37-20.72C723.81,612.26,722.77,610.83,722.31,609.52Zm-2.09-85.73-2.16.54a11.28,11.28,0,0,0-.46,3.15c.86,6.21,1.83,12.4,2.8,18.59.1.64.17,1.57.6,1.84a45.63,45.63,0,0,0,4.39,2.29c.45-1.4,1.37-2.84,1.27-4.21a42.85,42.85,0,0,0-1.57-9.23C723.72,532.35,721.87,528.1,720.22,523.79Zm6.46,101.31,1.78.13c3.52-10.92.6-21.86-.48-32.75-4.42,1.28-6.84,8.08-4.23,11.64,1.29,1.78,2.63,4,2.8,6C727,615.11,726.68,620.11,726.68,625.1ZM710.85,658c-1.64-1.68-2.7-3.62-4.25-4.18a91.09,91.09,0,0,0-12.6-3.38c-1.17-.25-3.49.35-3.68,1-.37,1.31-.13,3.59.77,4.3a8.3,8.3,0,0,0,5.39,1.63c2.68-.21,4.54-.28,6,2.64.63,1.25,3.37,2,5.11,1.91C708.58,661.88,709.48,659.74,710.85,658Zm3.15-2.05c-.26.73-.88,1.57-.72,2.23.48,2,1.26,3.92,1.92,5.87l10.13-3.63c-1-1.34-1.71-3.48-3-3.86C719.93,655.82,717.21,656.1,714,655.93Zm13.2-85,1.95,0c2.83-4.06,1.51-8.68.12-12.94-.52-1.62-3-2.61-5.45-4.57,1.17,4.36,2,7,2.54,9.6S726.94,568.29,727.2,570.93ZM698,416.48c-8.49,1.21-14.34,7.11-21.64,12.41Z" transform="translate(-621.02 -61.35)"/><path d="M643,133c-3.84-5.08-5-10.52-5-17.12,0-7.8-2.43-15.64-4.21-23.38-.89-3.86.34-5.67,1.27-9.39,1-3.94,4.55-8.81,7.22-13.32,2.54-4.29,8.2-4.84,13.67-6.59,1.9-.61,3.09-.65,4.59-1.17,5.84-2,10.65,1.13,14.76,4.85,2.47,2.23,4.55,5,7.19,6.94,12,9.08,11.47,21.5,9.61,34.43-.32,2.25.29,4.63.47,7l1.75,0,1.4-4.27,1.41.42-6.92,22.34-1.74-.12c.21-3.07.42-6.14.65-9.58l-3.79-1.33c2.77-9.79.11-18.89-4.72-26.72-2.63-4.27-8.32-8-13.29-9.17-5.85-1.4-12.51-.31-18.66.65s-11.22,9.54-9.56,15.46c.28,1,3.28,2.12,4.74,1.81,7.37-1.53,9.38.73,9.82,8.39.23,3.91-3.5,5.84-7,4-1.84-.94-3.72-1.81-7.24-3.52.63,5.26,1,9.08,1.6,12.83A60.45,60.45,0,0,0,643,133Zm30.84-58.37c-10-1.51-17,.16-25,6.41C656.25,82.72,671.14,79.11,673.88,74.59Zm-18.92-4c-2.1,1.72-6.33,5.13-3.68,3.72,1.82-1.61,5.37-2.87,7.18-4.47a3.1,3.1,0,0,0,.94-3.06C657.5,68.05,656.8,69.14,655,70.54Z" transform="translate(-621.02 -61.35)"/><path d="M703.54,155.18c-2.47,1.31-4.88,2.75-7.42,3.92-4,1.83-9.5,2.25-7.35,9.22.27.89-1.55,2.71-2.72,3.74-6.56,5.79-13.93,10.84-19.59,17.38-4.21,4.87-6.34,11.57-9.21,17.55-4.27,8.88-8.38,17.84-12.91,27.53-3-8.51-5-16.4-2.49-24.59s6.12-16.05,13.33-21.72c6.91-5.43,13.64-11.15,20-17.24A135.41,135.41,0,0,0,688,156.09C690.41,153,697.1,151.57,703.54,155.18Zm-56.76,54.46c1.45-1.86,2.57-2.85,3-4.08.2-.55-.93-1.6-1.46-2.42-1.06.9-2.39,1.64-3.05,2.77C645,206.44,646,207.72,646.78,209.64Z" transform="translate(-621.02 -61.35)"/><path d="M732.77,676.62c1.06,11,.23,12.53-10.16,16-10,3.39-20.09,6.8-30.34,9.41-14.21,3.61-27.78.44-42.36-5.42l7.43,7.83c-5.26-.58-10-2.68-12.28-8.07-2.16-5.13,1.69-8.62,4.13-13.5,5.94,7.82,13.7,8.22,21.88,8.54,5.3.21,10.52,2.37,15.76,3.71,5.79,1.48,11-.32,16.3-2.41,7.5-3,15.25-5.39,22.54-8.81C728.5,682.62,730.35,679.21,732.77,676.62Z" transform="translate(-621.02 -61.35)"/><path d="M652,148.07c7.8,2.9,15.35,3.7,22.1-2.55.61-.56,1.66-1,1.85-1.61,1.55-5.27,5.92-4.89,10-5.18,2,6.89-1.53,10.88-18,20.16-.6-.55-1.21-1.55-2-1.73a25.18,25.18,0,0,0-4.53-.18c.2,1.46.08,3.06.67,4.34,2.26,4.92,4.62,9.76,0,15.64l-10-29Z" transform="translate(-621.02 -61.35)"/><path d="M676.83,106.66c0,5.2-3.28,7.85-9.32,7.91-5.12.05-7.29-2.29-7.25-7.82,0-3.21,6.36-7.42,11.48-7.17C676.33,99.81,677.23,103.09,676.83,106.66Z" transform="translate(-621.02 -61.35)"/><path d="M652,148c-5.36-3.6-7.62-9.06-9-15l-.06,0c2.34,3.36,5.46,1.81,8.45,1.41,5.73-.76,11.46-1.49,17.21-2a7.8,7.8,0,0,1,4,1.2c.37.2.34,2.11.21,2.14a16.56,16.56,0,0,1-3.65.51c-4.77.14-9.59-.11-14.32.44-4,.46-6.8,2.27-3.77,7,.74,1.17.63,2.88.91,4.34Z" transform="translate(-621.02 -61.35)"/><path d="M679.21,680l-9-7.83,4.13-2.5c1.92,3.51,3.76,6.86,5.59,10.22Z" transform="translate(-621.02 -61.35)"/><path d="M665,141.51c-2.1,1.39-3.48,3-4.49,2.79-1.2-.24-2.1-2-3.12-3.15,1.06-.92,2.12-2.55,3.2-2.56S663,140.07,665,141.51Z" transform="translate(-621.02 -61.35)"/><path d="M658.14,127.53l5.85-2.59,1.24,2.88-6,2.43Z" transform="translate(-621.02 -61.35)"/><path d="M641.3,627.43c1.86-.49,3.76-.89,5.59-1.5a44.1,44.1,0,0,1,5.45-1.82C649.25,627,646.44,630.66,641.3,627.43Z" transform="translate(-621.02 -61.35)"/></svg>